<?xml version="1.0" encoding="utf-8"?>
<!-- Generator: Adobe Illustrator 24.2.1, SVG Export Plug-In . SVG Version: 6.00 Build 0)  -->
<svg version="1.1" id="Layer_1" xmlns="http://www.w3.org/2000/svg" xmlns:xlink="http://www.w3.org/1999/xlink" x="0px" y="0px"
	 viewBox="0 0 235 220" style="enable-background:new 0 0 235 220;" xml:space="preserve">
<style type="text/css">
	.st0{fill:#35835C;}
	.st1{enable-background:new    ;}
</style>
<g>
	<path class="st0" d="M38.5,89.8c0,0,0-0.1-0.1-0.1C38.4,89.7,38.5,89.8,38.5,89.8z"/>
	<path class="st0" d="M38.5,89.8c0,0-0.1,0.1-0.2,0.2C38.4,89.9,38.5,89.9,38.5,89.8z"/>
	<path class="st0" d="M188.4,0.7c-47,6.7-94.8,6.7-141.8,0C20.7-3.5,0,12.1,0,38.7c0,28.7,0,57.5,0,86.2c0,26.5,20.7,42.2,46.6,38
		c13.9-2,28-3.4,42-4.2c14.7-2.1,26.4-6.2,26.8-16.4c0.2-1.5,0.2-3.4,0.4-5c0-3.4,0-6.7,0-10.1c0-0.2,0-0.4,0-0.6
		c-0.1-0.9-0.1-2.1-0.3-3c0-0.4,0-0.9,0-1.4c-7.2,1-13.1,2.2-20.2,0.7c-1.4-0.2-4.2,0.1-2.2,1.1c1.3,1.3,2.2,3.2,2.8,5.3
		c0.4,0.8,0.4,3.1,0,3.9c0,0.1,0,0.1,0,0.2c-0.6,4-1.1,8.8-4.3,9.4c-7.3,1.4-15.4-15.4-7.2-20.2c-10.5-1.1-16.9,6.9-25.9,7.2
		c0.2-2.6,2.2-3.5,4.3-4.3c-3.5-2.9-10.9-2-13.3-6.1c-5.6,9.8-20.9,2-19.8-9c6.4-5.1,20.7-2,19.8,7.9c5.7,0.6,11.5,4.6,17.3,5
		c4.4,0.3,7.2-2.8,11.5-3.6c1.1-0.9,9,0.3,6.1-1.1c-7.6-6.1-1-20.2,8.3-20.2c1.8,1.5,2.6,3.9,3.2,6.5c0.6,1.1,0.6,4.7,0,5.8
		c-0.6,4.2-2.8,7-6.1,8.6c4.1,0.9,8.8,1.5,14,1.4c0.2,0,0.5,0,0.8,0c1.2,0,2.8-0.1,3.9-0.3c2.3-0.3,5.1-0.2,6.5-1.4
		c-0.6-2.1-3.4-2.3-5-3.2c-4.8-2.6-11-6.1-13-11.9c3.5-0.2,5.4,4.1,8.6,5.4c-2.5-8,0-16.4,7.6-17.3c0.8,0,1.7,0,2.5,0
		c5.7,0.3,8.3,3.7,9.7,8.3c0,0.1,0,0.1,0,0.1c0.4,0.9,0.4,3.3,0,4.3c-0.7,3.7-3.1,5.7-5.7,7.5c0.1,2.7,0.6,5,1.1,7.2
		c2.2,0.8,4.1,1.9,6.8,2.2c-0.1-1.8-2.2-3.4-2.5-6.5c-0.5-4.8,2.1-12.2,5.4-12.6c6.5-0.8,13.7,16,6.1,19.8c-0.1,0-0.1,0-0.1,0
		c-0.2,0.2-0.7,0.3-0.7,0.7c0.5,0.8,2.5,0.3,3.6,0.4c5.6-0.1,8.6-2.7,14-2.9c1.7-0.6,5.9-0.6,7.6,0c3.7,0.2,6.2,1.5,9.4,2.2
		c0.1,0.2,0.3,0.2,0.6,0.2c1.6,0.2,1.4,0.9,3,0.6c0.2,0,0.5,0,0.7,0c2.2,0,4.3,0,6.5,0c0.2,0,0.3,0,0.4,0c2.1-0.3,5.2,0.4,6.8-0.4
		c3.2-1,4.9-3.3,8.3-4c-0.4,4.6-6.7,6.2-11.7,6.8c-1,0.4-0.3,2.6-1.4,2.9c-8.4-0.8-13.2-5.3-22.7-5c1.1,1.3,3.7,3.8,4.3,6.9
		c0.5,1,0.6,5,0,5.8c-1.3,18.1-23.9-4.4-12.2-12.3c-9.9,3.2-22,3-31-0.7c0,1.4,0,2.7,0,4c0,3.4,0,6.9,0,10.4
		c0.3,6.1,0.8,12.1,5.4,15.1c8.4,5.4,24.5,5.5,40.1,7.4c7,0.7,14,1.5,20.9,2.5c25.9,4.2,46.6-11.5,46.6-38c0-28.7,0-57.5,0-86.2
		C235,12.2,214.3-3.5,188.4,0.7z M38.5,132.3c3.1-12.2,21.9-8.4,20.4,4.1c-1.3,10.4-18.2,12.1-20.5,0.9
		C38,136.3,38.1,133.2,38.5,132.3z M204,61.4c3.7,1.2,6.1,3.6,7.2,7.4c0.5,1.5,0.5,3.4,0,5c-1.2,3.9-3.7,6.4-7.6,7.6
		c-1.5,0.5-3.4,0.5-5,0c-3.9-1.2-6.4-3.7-7.6-7.6c-0.5-1.1-0.5-4.1,0-5c1.2-3.9,3.7-6.5,7.6-7.6C199.6,60.7,203,60.8,204,61.4z
		 M197.5,39.5c4.4,6.7,0.4,18.1-6.5,19.1c-4.5,0.7-8.4-1.6-9-6.1C180.7,43.7,189.5,39.1,197.5,39.5z M169,29.2
		c0.7-0.5,4.4-0.4,5.7,0c0.1,0,0.1,0,0.1,0c4.4,1,6.8,4,7.9,8.3v0.1c0.3,0.7,0.3,2.6,0,3.4v0.1c-1.4,5.3-5.2,8.8-10.8,8.6
		C160.8,49.2,158.8,32.6,169,29.2z M157.1,33.4c0,0.2,0,0.3,0,0.4c0.3,1.4,0.3,4.3,0,6c-0.3,8.3-12.9,10.9-15.5,3
		C139.5,33.6,154.9,21.6,157.1,33.4z M134.1,30.9c4.1,2.9,9.3,15.7,0.7,18.4c-5.9,1.8-9.9-3-10.1-8.3
		C124.5,34.8,128.7,27.2,134.1,30.9z M128.4,57.6c1.5-1.6,1.7-5.3,3.6-6.5c2-0.7,1.3,1.1,1.9,1.8c0,0.2,0.2,0.5,0.2,0.7
		c4.4-0.6,7-8,10.8-4.7c-6.1,6.1-12.6,11.7-21.9,14.5C122.5,59.4,126.5,59.6,128.4,57.6z M110,21.6c11.8-1.5,16.8,15.9,5,20.5
		c-0.9,0.6-4.9,0.6-5.8,0C98.2,40.3,99.8,22.9,110,21.6z M116.9,61.2c-1.8-5.2-3.1-10.7-4-16.6c0.9,0.3,0.7-0.7,1.4-0.7
		C116.5,46.1,120.2,57.7,116.9,61.2z M103.8,51c18.5,1.8-5,24.1-12.2,11.2c-0.4-1.2-0.8-2.6-0.7-4.3c0.9-3.8,3.3-6,7.1-6.9
		C99.8,50.4,101.9,50.7,103.8,51z M79.2,38.9c1.6-4.4,3.7-10.4,8.2-10.5c4.5-0.1,6.2,5.3,7.5,9.8c0.4,0.7,0.5,3.9,0,4.7
		c-0.3,3.8-2.2,6.1-5.3,7.1c-0.6,0.3-1.9,0.6-3.1,0.6c-0.6,0-1.1-0.1-1.6-0.2c-0.1,0-0.1,0-0.1,0c-0.1,0-0.1-0.1-0.2-0.1
		c-0.3-0.1-0.6-0.2-0.8-0.3c-2.4-1.2-4.3-3-4.8-6.1C78.6,42.7,78.7,39.8,79.2,38.9z M80,61.8c3.7,0.9,5.6,3.6,6.9,7
		c0.6,0.8,0.5,4.6,0,5.8c-1.9,9.5-18.7,9.3-20.1-0.5c-0.5-1.5-0.5-3.4,0-5c1.1-3.8,3.6-6.2,7.3-7.6C75.1,61.1,79.3,61.2,80,61.8z
		 M54,35.2c1-4,3.6-6.6,7.6-7.7c0.8-0.5,5.9-0.2,6.7,0.4c8.4,3.2,7.7,18-1.5,20c-6.6,1.4-11.6-2.7-13-8.3
		C53.5,38.4,53.5,35.9,54,35.2z M36.9,43.2c11.1-3.4,20.7,12.9,9.7,17.6c-0.1,0-0.1,0-0.2,0c-0.8,0.4-3,0.4-3.8,0
		C36.8,59.4,33.2,49.6,36.9,43.2z M30.4,104.8c-0.8,0.6-4,0.6-4.7,0c-3.3-1.3-8-1.6-8.6-4.7c-1-5,6.9-9.6,11.5-10.8
		c2.8,0,4.5-0.2,5.8,0.7c0.2,0.2,0.5,0.5,1,0.7c1,0.9,1.8,1.4,2.6,2.5C39.7,99.9,35.8,104,30.4,104.8z M78.3,112.2
		C78.3,112.3,78.3,112.3,78.3,112.2c-2.1,12.3-21.5,9.8-20.5-3.1C58.6,98,76.1,96.3,78.3,108C78.8,108.5,78.8,111.2,78.3,112.2z
		 M99.1,84.2c-1.3,5.7-3.4,10.5-9.4,11.5c-0.7,0.6-0.1,2.5-1.1,2.9c-9.7-1.5-14.5-7.8-25.2-8.3c-2.4-0.6-7.9-1-8.6,0.4
		c2.1,1.1,3.6,2.8,4.3,5.4c0.6,0.8,0.6,4,0,4.7c-1.6,4-3.5,10.3-7.9,10.4c-4.2,0.2-5.8-5.6-6.8-10.4c-0.6-0.4-0.6-3.2,0-3.6
		c0.4-3.2,2.3-4.9,4.3-6.5c-4.4-0.2-5.9,2.7-10.4,2.5c-0.3-0.4-0.5-1-0.4-1.8c0.3-0.3,0.4-0.8,0.4-1.4c-1-0.2-3.3,0.3-3.6-0.4
		c-0.6-0.6-2.1-0.4-2.8-1c-2.6-1.6-4.7-3.7-5.4-7.1c-0.4-0.8-0.4-4.1-0.1-5.2c2.5-9.7,18.7-9.2,20.5,0.7c0.7,3.9-0.9,7.3-2.9,10.1
		c2.2,1,5-0.5,7.2-0.7c1.2,0,2.4,0,3.6,0c1.2,0,2.4,0,3.6,0c1,0,1.9,0,2.9,0c-4.7-7.3-10.5-15.4-14-22.7c-0.1-1.9,2.4-1.6,3.6-1.1
		c-2.2-7.8,14.8-16.8,16.9-9c0.6,0.8,0.6,4,0,4.7c-1.2,4.9-3.1,9-7.9,10.4h-0.1c-1.1,0.3-3,0.3-3.8,0c-0.1,0-0.1,0-0.1,0
		c-0.8-0.4-1.5-0.8-2.2-1.1c1.2,5.6,4,9.5,7.2,13c1.4,1,2.6,2.2,3.6,3.6c3.9,5.2,12.6,5.7,18.4,9c-2.8-8,3.3-15.1,11.2-15.8
		c-3.6-7-9.1-15.7-7.6-25.2c2.9,0.9,2.6,4.9,3.6,7.6c0.1,1.3,0.7,2.2,1.1,3.2c0.4,5.8,3.7,8.7,5,13.7c1,0.8,2.2,1.4,2.9,2.5
		C99.6,79.8,99.6,83.5,99.1,84.2z M101,87.8c0-1.2,0.5-2,0.7-3.2c2.8,2.5,5.6,4.9,6.9,9C104.7,94.4,103.3,89.8,101,87.8z
		 M114.7,91.4c-0.7,0.3-2.3-0.4-2.5,0.4c-0.2,0-0.3,0-0.4,0c0-2.2,0-4.3,0-6.5c0.3-0.4,2.1-1.3,2.5-0.4c0.2,2-0.5,4.8,0.4,6.1
		C114.7,91.2,114.7,91.3,114.7,91.4z M113.6,82.6c-3.1-1-4.4-3.5-6.5-6.8c-0.8-7.9,2.5-11.6,8-13.2c0.1,0,0.1,0,0.2,0h0.1
		c1.3-0.3,4.1-0.2,4.7,0.2C132.6,65.5,128.1,87.6,113.6,82.6z M162.4,110.5c-1.2,10.9-19.7,10.9-20.9,0c-0.6-0.6-0.6-3.7,0-4.3
		c1.1-4.5,4-7.1,8.3-8.3c0.1,0,0.1,0,0.1,0c0.9-0.4,3.3-0.4,4.3,0c4.3,1.3,7.3,3.8,8.2,8.3C163,106.8,163,109.9,162.4,110.5z
		 M157.1,75.1c-5.6,0.5-10.1,5.1-14.8,7.6c1.9,1.2,4.2,2.1,5,4.3c2.2,5.9-2.9,16.3-7.6,16.2c-4.3-0.1-5.6-6-6.8-10.1
		c-0.5-0.9-0.4-3.6,0-4.4c0.1-0.6,0.5-0.9,0.3-1.8c-5,0.4-6.5,8-11.5,6.1c3.5-6.9,10.8-10.1,17.6-13.7c-4-1.1-6.9-2.7-7.6-6.5
		c-1-6,4.6-15,9-14.8c4.1,0.2,5,5.7,6.1,9.7c0,0.1,0,0.1,0,0.1c0.3,0.8,0.3,2.6,0,3.4v0.1c-0.4,2.2-1.4,3.7-2.2,5.4
		c7.4-2,12.2-6.5,18.7-9.4c-5.5-2.6-9.2-6.9-9.4-14.8c1.2-0.9,2.2-2.1,4.7-1.9h0.1c1.2-0.1,2.8-0.1,3.8,0c0.2,0,0.4,0.1,0.6,0.1
		c6.3,1.1,11.8,4.8,10.2,12.5c4.7-0.9,5.7-7.2,11.5-5.8c-1,2.6-3.3,3.7-4.7,5.8c5.5,0.3,7.8,3.7,9,8.3c0.4,1.3,0.4,4.4,0,5.7v0.1
		c-1,13.2-18.9-0.1-15.5-9.4c-5,1.4-10,2.8-13.3,5.8c0.8,0.3,0.9-0.2,1.4-0.3c0.6-0.5,4.3-0.3,4.9,0.2c3.9,1,6.3,3.5,7.4,7.2
		c0.5,0.6,0.4,3.3,0,4.2c-0.6,4.3-3,7.5-6.1,8.5C156.3,97.3,149.1,82.6,157.1,75.1z M176.1,122.8c-1.7-0.1-3.8,0.2-5-0.4
		c-7.3-0.8-5.8-19.9,1.1-20.5C178.9,101.3,187.1,119.4,176.1,122.8z M175.8,98.9c-0.5-0.7-0.5-3.8,0-4.6c1-4.3,3.9-6.7,7.9-8h0.1
		c0.8-0.3,3-0.3,4.3,0c3,0.5,6.6,3.6,7.5,5.8C201.3,105.7,179.5,113.5,175.8,98.9z M205,137.2c-1.5,4.2-3.2,6.9-6.5,7.9
		c-16.9,5.4-19.4-24.4-0.7-20.2c3.5,0.8,5.8,4.1,7.1,7.9C205.3,133.4,205.4,136,205,137.2z M194.9,114.4c-0.3-0.9-0.4-3.2,0.1-3.7
		c1.7-6,10-10.4,17.2-7.4C217.1,115,199.7,127.3,194.9,114.4z"/>
</g>
<g class="st1">
	<path class="st0" d="M52.7,186.1c6.7,0,9.5,3.3,9.2,9.6l-0.4,14.1c0,1.9,0.6,2.8,2,2.8c0.7,0,1.6-0.3,2.3-0.7l0.9,1.6
		c-1,2-3.5,3.5-6.4,3.5c-3.3,0-5.6-1.9-6.2-4.9c-2.2,2.6-5.8,4.6-9.7,4.6c-4.1,0-7-2.4-7-6.4c0-4.3,3.2-7,9.8-9.1l6.5-2.1v-2.9
		c0.1-3.9-2-6.3-5.3-6.3c-2.1,0-3.3,1-3.3,2.3c0,0.8,0.4,2,1,4c-1,1.1-2.9,2-4.7,2c-1.9,0-3.1-1.2-3.1-3.1
		C38.5,190.4,44.9,186.1,52.7,186.1z M53.7,210.2l0.1-6.7V202l-4.4,1.5c-2.8,1-3.7,2.5-3.7,4.6c0,2.6,1.4,4,3.7,4
		C51,212.1,52.4,211.4,53.7,210.2z"/>
	<path class="st0" d="M81.5,186.3l-0.7,5c2.5-2.5,6.8-5.3,10.6-5.3c3.1,0,6,1.7,7.1,4.7c2.6-2.2,6.8-4.7,10.5-4.7
		c4,0,7.9,2.7,7.7,8.5l-0.5,14.8c-0.1,2.3,0.4,3.3,2,3.7l2,0.5v2.8h-15.4l0.3-2.8l1.4-0.5c1.2-0.4,1.7-1.2,1.7-3.3l0.1-3.4l0.1-8.5
		c-0.1-4.9-1.9-6.4-4.3-6.4c-1.6,0-3.6,0.5-5.2,1.3c0.1,0.5,0.1,1,0.1,1.5l-0.5,15.5c-0.1,2.1,0.3,2.9,1.5,3.3l1.6,0.5v2.8H87.3
		l0.2-2.8l1.4-0.5c1.1-0.4,1.6-1.2,1.7-3.3l0.1-3.4l0.1-8.5c0.1-4.9-1.9-6.4-4.1-6.4c-1.5,0-3.4,0.6-4.9,1.4l-0.6,16.9
		c-0.1,2.1,0.2,2.9,1.4,3.3l1.6,0.5v2.8H68.9l0.3-2.8l2.1-0.5c1.4-0.4,1.9-1.2,2-3.5l0.2-4.7v-8.4c0-1.5-0.1-3.2-0.4-3.3l-4.1-1.4
		l-0.1-2.6C71.4,188.1,79,186.3,81.5,186.3z"/>
	<path class="st0" d="M140.8,171.5c4.9,0,8.4,2.2,8.4,5.2c0,2.2-1.7,3.9-5,4.3c-1.9-3.8-2.6-5.8-4.8-5.8c-2,0-3.1,2-3.2,4.9
		l-0.2,7.4c2.1-0.3,5.2-0.5,6.3-0.5c1.9,0,2.5,0.6,2.5,1.9c0,1.2-0.7,2.2-1.5,3l-7.1-0.4l-0.4,17.9c-0.1,2.4,0.2,3.3,2.1,3.7
		l3.2,0.5l0.1,2.8h-17.8l0.3-2.8l2.2-0.5c1.4-0.4,1.9-1.2,2-3.5l0.2-5.7l0.1-12.5l-4.8-0.4v-3l4.9-0.4v-1.9
		C128.1,178,132.5,171.5,140.8,171.5z"/>
	<path class="st0" d="M159.5,186.3l-0.7,5c2.5-2.5,6.8-5.3,10.6-5.3c3.1,0,6,1.7,7.1,4.7c2.6-2.2,6.8-4.7,10.5-4.7
		c4,0,7.9,2.7,7.7,8.5l-0.5,14.8c-0.1,2.3,0.4,3.3,2,3.7l2,0.5v2.8h-15.4l0.3-2.8l1.4-0.5c1.2-0.4,1.7-1.2,1.7-3.3l0.1-3.4l0.1-8.5
		c-0.1-4.9-1.9-6.4-4.3-6.4c-1.6,0-3.6,0.5-5.2,1.3c0.1,0.5,0.1,1,0.1,1.5l-0.5,15.5c-0.1,2.1,0.3,2.9,1.5,3.3l1.6,0.5v2.8h-14.3
		l0.2-2.8l1.4-0.5c1.1-0.4,1.6-1.2,1.7-3.3l0.1-3.4l0.1-8.5c0.1-4.9-1.9-6.4-4.1-6.4c-1.5,0-3.4,0.6-4.9,1.4l-0.6,16.9
		c-0.1,2.1,0.2,2.9,1.4,3.3l1.6,0.5v2.8h-15.4l0.3-2.8l2.1-0.5c1.4-0.4,1.9-1.2,2-3.5l0.2-4.7v-8.4c0-1.5-0.1-3.2-0.4-3.3l-4.1-1.4
		l-0.1-2.6C149.3,188.1,156.9,186.3,159.5,186.3z"/>
</g>
</svg>
