<?xml version="1.0" encoding="utf-8"?>
<!-- Generator: Adobe Illustrator 24.2.1, SVG Export Plug-In . SVG Version: 6.00 Build 0)  -->
<svg version="1.1" id="Layer_1" xmlns="http://www.w3.org/2000/svg" xmlns:xlink="http://www.w3.org/1999/xlink" x="0px" y="0px"
	 viewBox="0 0 223.9 69.6" style="enable-background:new 0 0 223.9 69.6;" xml:space="preserve">
<style type="text/css">
	.st0{fill:#35835C;}
	.st1{enable-background:new    ;}
</style>
<g>
	<path class="st0" d="M16.4,38.2C16.4,38.2,16.4,38.2,16.4,38.2C16.4,38.2,16.4,38.2,16.4,38.2z"/>
	<path class="st0" d="M16.4,38.2C16.4,38.2,16.3,38.2,16.4,38.2C16.3,38.3,16.4,38.2,16.4,38.2z"/>
	<path class="st0" d="M80.2,0.3c-20,2.9-40.3,2.9-60.3,0C8.8-1.5,0,5.1,0,16.5c0,12.2,0,24.5,0,36.7c0,11.3,8.8,18,19.8,16.2
		c5.9-0.8,11.9-1.4,17.9-1.8c6.3-0.9,11.2-2.6,11.4-7c0.1-0.6,0.1-1.4,0.2-2.1c0-1.4,0-2.9,0-4.3c0-0.1,0-0.2,0-0.3
		c0-0.4,0-0.9-0.1-1.3c0-0.2,0-0.4,0-0.6c-3.1,0.4-5.6,0.9-8.6,0.3c-0.6-0.1-1.8,0-0.9,0.5c0.6,0.6,0.9,1.4,1.2,2.3
		c0.2,0.3,0.2,1.3,0,1.7c0,0,0,0,0,0.1c-0.3,1.7-0.5,3.7-1.8,4c-3.1,0.6-6.6-6.6-3.1-8.6c-4.5-0.5-7.2,2.9-11,3.1
		c0.1-1.1,0.9-1.5,1.8-1.8c-1.5-1.2-4.6-0.9-5.7-2.6c-2.4,4.2-8.9,0.9-8.4-3.8c2.7-2.2,8.8-0.9,8.4,3.4c2.4,0.3,4.9,2,7.4,2.1
		c1.9,0.1,3.1-1.2,4.9-1.5c0.5-0.4,3.8,0.1,2.6-0.5c-3.2-2.6-0.4-8.6,3.5-8.6c0.8,0.6,1.1,1.7,1.4,2.8c0.3,0.5,0.3,2,0,2.5
		c-0.3,1.8-1.2,3-2.6,3.7c1.7,0.4,3.7,0.6,6,0.6c0.1,0,0.2,0,0.3,0c0.5,0,1.2,0,1.7-0.1c1-0.1,2.2-0.1,2.8-0.6
		c-0.3-0.9-1.4-1-2.1-1.4c-2-1.1-4.7-2.6-5.5-5.1c1.5-0.1,2.3,1.7,3.7,2.3c-1.1-3.4,0-7,3.2-7.4c0.3,0,0.7,0,1.1,0
		c2.4,0.1,3.5,1.6,4.1,3.5c0,0,0,0,0,0c0.2,0.4,0.2,1.4,0,1.8c-0.3,1.6-1.3,2.4-2.4,3.2c0,1.1,0.3,2.1,0.5,3.1
		c0.9,0.3,1.7,0.8,2.9,0.9c0-0.8-0.9-1.4-1.1-2.8c-0.2-2,0.9-5.2,2.3-5.4c2.8-0.3,5.8,6.8,2.6,8.4c0,0,0,0,0,0
		c-0.1,0.1-0.3,0.1-0.3,0.3c0.2,0.3,1.1,0.1,1.5,0.2c2.4,0,3.7-1.1,6-1.2c0.7-0.3,2.5-0.3,3.2,0c1.6,0.1,2.6,0.6,4,0.9
		c0,0.1,0.1,0.1,0.3,0.1c0.7,0.1,0.6,0.4,1.3,0.3c0.1,0,0.2,0,0.3,0c0.9,0,1.8,0,2.8,0c0.1,0,0.1,0,0.2,0c0.9-0.1,2.2,0.2,2.9-0.2
		c1.4-0.4,2.1-1.4,3.5-1.7c-0.2,2-2.9,2.6-5,2.9c-0.4,0.2-0.1,1.1-0.6,1.2c-3.6-0.3-5.6-2.3-9.7-2.1c0.5,0.6,1.6,1.6,1.8,2.9
		c0.2,0.4,0.3,2.1,0,2.5c-0.6,7.7-10.2-1.9-5.2-5.2c-4.2,1.4-9.4,1.3-13.2-0.3c0,0.6,0,1.1,0,1.7c0,1.4,0,2.9,0,4.4
		c0.1,2.6,0.3,5.1,2.3,6.4c3.6,2.3,10.4,2.3,17,3.1c3,0.3,5.9,0.6,8.9,1.1c11,1.8,19.8-4.9,19.8-16.2c0-12.2,0-24.5,0-36.7
		C100,5.2,91.2-1.5,80.2,0.3z M16.4,56.3c1.3-5.2,9.3-3.6,8.7,1.7c-0.6,4.4-7.7,5.1-8.7,0.4C16.2,58,16.2,56.7,16.4,56.3z
		 M86.8,26.1c1.6,0.5,2.6,1.5,3.1,3.1c0.2,0.6,0.2,1.4,0,2.1c-0.5,1.7-1.6,2.7-3.2,3.2c-0.6,0.2-1.4,0.2-2.1,0
		c-1.7-0.5-2.7-1.6-3.2-3.2c-0.2-0.5-0.2-1.7,0-2.1c0.5-1.7,1.6-2.8,3.2-3.2C84.9,25.8,86.4,25.9,86.8,26.1z M84,16.8
		c1.9,2.9,0.2,7.7-2.8,8.1c-1.9,0.3-3.6-0.7-3.8-2.6C76.9,18.6,80.6,16.6,84,16.8z M71.9,12.4c0.3-0.2,1.9-0.2,2.4,0c0,0,0,0,0,0
		c1.9,0.4,2.9,1.7,3.4,3.5v0c0.1,0.3,0.1,1.1,0,1.4v0c-0.6,2.3-2.2,3.7-4.6,3.7C68.4,20.9,67.6,13.9,71.9,12.4z M66.9,14.2
		c0,0.1,0,0.1,0,0.2c0.1,0.6,0.1,1.8,0,2.6c-0.1,3.5-5.5,4.6-6.6,1.3C59.4,14.3,65.9,9.2,66.9,14.2z M57.1,13.1
		c1.7,1.2,4,6.7,0.3,7.8c-2.5,0.8-4.2-1.3-4.3-3.5C53,14.8,54.8,11.6,57.1,13.1z M54.6,24.5c0.6-0.7,0.7-2.3,1.5-2.8
		c0.9-0.3,0.6,0.5,0.8,0.8c0,0.1,0.1,0.2,0.1,0.3c1.9-0.3,3-3.4,4.6-2c-2.6,2.6-5.4,5-9.3,6.2C52.1,25.3,53.8,25.4,54.6,24.5z
		 M46.8,9.2c5-0.6,7.1,6.8,2.1,8.7c-0.4,0.3-2.1,0.3-2.5,0C41.8,17.1,42.5,9.7,46.8,9.2z M49.7,26C49,23.8,48.4,21.5,48,19
		c0.4,0.1,0.3-0.3,0.6-0.3C49.6,19.6,51.1,24.5,49.7,26z M44.2,21.7C52,22.5,42,31.9,39,26.5c-0.2-0.5-0.3-1.1-0.3-1.8
		c0.4-1.6,1.4-2.6,3-2.9C42.5,21.4,43.4,21.6,44.2,21.7z M33.7,16.5c0.7-1.9,1.6-4.4,3.5-4.5c1.9,0,2.6,2.3,3.2,4.2
		c0.2,0.3,0.2,1.7,0,2c-0.1,1.6-0.9,2.6-2.3,3c-0.3,0.1-0.8,0.3-1.3,0.3c-0.3,0-0.5,0-0.7-0.1c0,0,0,0,0,0c0,0,0,0-0.1,0
		c-0.1,0-0.3-0.1-0.3-0.1c-1-0.5-1.8-1.3-2-2.6C33.4,18.2,33.5,16.9,33.7,16.5z M34,26.3c1.6,0.4,2.4,1.5,2.9,3c0.3,0.3,0.2,2,0,2.5
		c-0.8,4-8,4-8.6-0.2c-0.2-0.6-0.2-1.4,0-2.1c0.5-1.6,1.5-2.6,3.1-3.2C32,26,33.7,26,34,26.3z M23,15c0.4-1.7,1.5-2.8,3.2-3.3
		c0.3-0.2,2.5-0.1,2.9,0.2c3.6,1.4,3.3,7.7-0.6,8.5c-2.8,0.6-4.9-1.1-5.5-3.5C22.8,16.3,22.8,15.3,23,15z M15.7,18.4
		c4.7-1.4,8.8,5.5,4.1,7.5c0,0,0,0-0.1,0c-0.3,0.2-1.3,0.2-1.6,0C15.7,25.3,14.1,21.1,15.7,18.4z M12.9,44.6c-0.3,0.3-1.7,0.3-2,0
		c-1.4-0.6-3.4-0.7-3.7-2c-0.4-2.1,2.9-4.1,4.9-4.6c1.2,0,1.9-0.1,2.5,0.3c0.1,0.1,0.2,0.2,0.4,0.3c0.4,0.4,0.8,0.6,1.1,1.1
		C16.9,42.5,15.2,44.2,12.9,44.6z M33.3,47.7C33.3,47.8,33.3,47.8,33.3,47.7c-0.9,5.2-9.1,4.2-8.7-1.3c0.3-4.7,7.8-5.4,8.7-0.5
		C33.5,46.2,33.5,47.3,33.3,47.7z M42.2,35.8c-0.6,2.4-1.4,4.5-4,4.9c-0.3,0.3,0,1.1-0.5,1.2c-4.1-0.6-6.2-3.3-10.7-3.5
		c-1-0.3-3.4-0.4-3.7,0.2c0.9,0.5,1.5,1.2,1.8,2.3c0.3,0.3,0.3,1.7,0,2c-0.7,1.7-1.5,4.4-3.4,4.4c-1.8,0.1-2.5-2.4-2.9-4.4
		c-0.3-0.2-0.3-1.4,0-1.5c0.2-1.4,1-2.1,1.8-2.8c-1.9-0.1-2.5,1.1-4.4,1.1c-0.1-0.2-0.2-0.4-0.2-0.8c0.1-0.1,0.2-0.3,0.2-0.6
		c-0.4-0.1-1.4,0.1-1.5-0.2c-0.3-0.3-0.9-0.2-1.2-0.4c-1.1-0.7-2-1.6-2.3-3c-0.2-0.3-0.2-1.7,0-2.2c1.1-4.1,8-3.9,8.7,0.3
		c0.3,1.7-0.4,3.1-1.2,4.3c0.9,0.4,2.1-0.2,3.1-0.3c0.5,0,1,0,1.5,0c0.5,0,1,0,1.5,0c0.4,0,0.8,0,1.2,0c-2-3.1-4.5-6.6-6-9.7
		c0-0.8,1-0.7,1.5-0.5c-0.9-3.3,6.3-7.1,7.2-3.8c0.3,0.3,0.3,1.7,0,2c-0.5,2.1-1.3,3.8-3.4,4.4h0c-0.5,0.1-1.3,0.1-1.6,0
		c0,0,0,0,0,0c-0.3-0.2-0.6-0.3-0.9-0.5c0.5,2.4,1.7,4,3.1,5.5c0.6,0.4,1.1,0.9,1.5,1.5c1.7,2.2,5.4,2.4,7.8,3.8
		c-1.2-3.4,1.4-6.4,4.8-6.7c-1.5-3-3.9-6.7-3.2-10.7c1.2,0.4,1.1,2.1,1.5,3.2c0,0.6,0.3,0.9,0.5,1.4c0.2,2.5,1.6,3.7,2.1,5.8
		c0.4,0.3,0.9,0.6,1.2,1.1C42.4,33.9,42.4,35.5,42.2,35.8z M43,37.4c0-0.5,0.2-0.9,0.3-1.4c1.2,1.1,2.4,2.1,2.9,3.8
		C44.6,40.2,44,38.2,43,37.4z M48.8,38.9c-0.3,0.1-1-0.2-1.1,0.2c-0.1,0-0.1,0-0.2,0c0-0.9,0-1.8,0-2.8c0.1-0.2,0.9-0.6,1.1-0.2
		c0.1,0.9-0.2,2,0.2,2.6C48.8,38.8,48.8,38.8,48.8,38.9z M48.3,35.1c-1.3-0.4-1.9-1.5-2.8-2.9c-0.3-3.4,1.1-4.9,3.4-5.6
		c0,0,0,0,0.1,0h0c0.6-0.1,1.7-0.1,2,0.1C56.4,27.9,54.5,37.3,48.3,35.1z M69.1,47c-0.5,4.6-8.4,4.6-8.9,0c-0.3-0.3-0.3-1.6,0-1.8
		c0.5-1.9,1.7-3,3.5-3.5c0,0,0,0,0,0c0.4-0.2,1.4-0.2,1.8,0c1.8,0.6,3.1,1.6,3.5,3.5C69.4,45.4,69.4,46.8,69.1,47z M66.9,31.9
		c-2.4,0.2-4.3,2.2-6.3,3.2c0.8,0.5,1.8,0.9,2.1,1.8c0.9,2.5-1.2,6.9-3.2,6.9c-1.8,0-2.4-2.6-2.9-4.3c-0.2-0.4-0.2-1.5,0-1.9
		c0-0.3,0.2-0.4,0.1-0.8c-2.1,0.2-2.8,3.4-4.9,2.6c1.5-2.9,4.6-4.3,7.5-5.8c-1.7-0.5-2.9-1.1-3.2-2.8c-0.4-2.6,2-6.4,3.8-6.3
		c1.7,0.1,2.1,2.4,2.6,4.1c0,0,0,0,0,0c0.1,0.3,0.1,1.1,0,1.4v0c-0.2,0.9-0.6,1.6-0.9,2.3c3.1-0.9,5.2-2.8,8-4
		c-2.3-1.1-3.9-2.9-4-6.3c0.5-0.4,0.9-0.9,2-0.8h0c0.5,0,1.2,0,1.6,0c0.1,0,0.2,0,0.3,0c2.7,0.5,5,2,4.3,5.3c2-0.4,2.4-3.1,4.9-2.5
		c-0.4,1.1-1.4,1.6-2,2.5c2.3,0.1,3.3,1.6,3.8,3.5c0.2,0.6,0.2,1.9,0,2.4v0c-0.4,5.6-8,0-6.6-4c-2.1,0.6-4.3,1.2-5.7,2.5
		c0.3,0.1,0.4-0.1,0.6-0.1c0.3-0.2,1.8-0.1,2.1,0.1c1.7,0.4,2.7,1.5,3.1,3.1c0.2,0.3,0.2,1.4,0,1.8c-0.3,1.8-1.3,3.2-2.6,3.6
		C66.5,41.4,63.4,35.1,66.9,31.9z M74.9,52.2c-0.7,0-1.6,0.1-2.1-0.2c-3.1-0.3-2.5-8.5,0.5-8.7C76.1,43.1,79.6,50.8,74.9,52.2z
		 M74.8,42.1c-0.2-0.3-0.2-1.6,0-2c0.4-1.8,1.7-2.9,3.4-3.4h0c0.3-0.1,1.3-0.1,1.8,0c1.3,0.2,2.8,1.5,3.2,2.5
		C85.7,45,76.4,48.3,74.8,42.1z M87.2,58.4c-0.6,1.8-1.4,2.9-2.8,3.4c-7.2,2.3-8.3-10.4-0.3-8.6c1.5,0.3,2.5,1.7,3,3.4
		C87.4,56.8,87.4,57.9,87.2,58.4z M82.9,48.7c-0.1-0.4-0.2-1.4,0-1.6c0.7-2.6,4.3-4.4,7.3-3.1C92.4,48.9,85,54.2,82.9,48.7z"/>
</g>
<g class="st1">
	<path class="st0" d="M124.3,31c4.6,0,6.5,2.3,6.3,6.6l-0.3,9.6c0,1.3,0.4,1.9,1.4,1.9c0.5,0,1.1-0.2,1.6-0.5l0.6,1.1
		c-0.7,1.4-2.4,2.4-4.4,2.4c-2.3,0-3.8-1.3-4.2-3.4c-1.5,1.8-4,3.1-6.6,3.1c-2.8,0-4.8-1.6-4.8-4.4c0-2.9,2.2-4.8,6.7-6.2l4.4-1.4
		v-2c0.1-2.7-1.4-4.3-3.6-4.3c-1.4,0-2.3,0.7-2.3,1.6c0,0.5,0.3,1.4,0.7,2.7c-0.7,0.8-2,1.4-3.2,1.4c-1.3,0-2.1-0.8-2.1-2.1
		C114.6,34,119,31,124.3,31z M125,47.5l0.1-4.6v-1l-3,1c-1.9,0.7-2.5,1.7-2.5,3.1c0,1.8,1,2.7,2.5,2.7
		C123.2,48.8,124.1,48.4,125,47.5z"/>
	<path class="st0" d="M144,31.2l-0.5,3.4c1.7-1.7,4.7-3.6,7.3-3.6c2.1,0,4.1,1.2,4.9,3.2c1.8-1.5,4.7-3.2,7.2-3.2
		c2.7,0,5.4,1.8,5.3,5.8l-0.3,10.1c-0.1,1.6,0.3,2.3,1.4,2.5l1.4,0.3v1.9H160l0.2-1.9l1-0.3c0.8-0.3,1.2-0.8,1.2-2.3l0.1-2.3
		l0.1-5.8c-0.1-3.4-1.3-4.4-2.9-4.4c-1.1,0-2.5,0.3-3.6,0.9c0.1,0.3,0.1,0.7,0.1,1l-0.3,10.6c-0.1,1.4,0.2,2,1,2.3l1.1,0.3v1.9H148
		l0.1-1.9l1-0.3c0.8-0.3,1.1-0.8,1.2-2.3l0.1-2.3l0.1-5.8c0.1-3.4-1.3-4.4-2.8-4.4c-1,0-2.3,0.4-3.4,1l-0.4,11.6
		c-0.1,1.4,0.1,2,1,2.3l1.1,0.3v1.9h-10.5l0.2-1.9l1.4-0.3c1-0.3,1.3-0.8,1.4-2.4l0.1-3.2v-5.7c0-1-0.1-2.2-0.3-2.3l-2.8-1l-0.1-1.8
		C137.1,32.4,142.3,31.2,144,31.2z"/>
	<path class="st0" d="M184.6,21.1c3.4,0,5.7,1.5,5.7,3.6c0,1.5-1.2,2.7-3.4,2.9c-1.3-2.6-1.8-4-3.3-4c-1.4,0-2.1,1.4-2.2,3.4
		l-0.1,5.1c1.4-0.2,3.6-0.3,4.3-0.3c1.3,0,1.7,0.4,1.7,1.3c0,0.8-0.5,1.5-1,2.1l-4.9-0.3L181.2,47c-0.1,1.6,0.1,2.3,1.4,2.5l2.2,0.3
		l0.1,1.9h-12.2l0.2-1.9l1.5-0.3c1-0.3,1.3-0.8,1.4-2.4l0.1-3.9l0.1-8.6l-3.3-0.3v-2.1l3.4-0.3v-1.3
		C175.9,25.5,178.9,21.1,184.6,21.1z"/>
	<path class="st0" d="M197.4,31.2l-0.5,3.4c1.7-1.7,4.7-3.6,7.3-3.6c2.1,0,4.1,1.2,4.9,3.2c1.8-1.5,4.7-3.2,7.2-3.2
		c2.7,0,5.4,1.8,5.3,5.8l-0.3,10.1c-0.1,1.6,0.3,2.3,1.4,2.5l1.4,0.3v1.9h-10.5l0.2-1.9l1-0.3c0.8-0.3,1.2-0.8,1.2-2.3l0.1-2.3
		l0.1-5.8c-0.1-3.4-1.3-4.4-2.9-4.4c-1.1,0-2.5,0.3-3.6,0.9c0.1,0.3,0.1,0.7,0.1,1L209,47.2c-0.1,1.4,0.2,2,1,2.3l1.1,0.3v1.9h-9.8
		l0.1-1.9l1-0.3c0.8-0.3,1.1-0.8,1.2-2.3l0.1-2.3l0.1-5.8c0.1-3.4-1.3-4.4-2.8-4.4c-1,0-2.3,0.4-3.4,1l-0.4,11.6
		c-0.1,1.4,0.1,2,1,2.3l1.1,0.3v1.9h-10.5l0.2-1.9l1.4-0.3c1-0.3,1.3-0.8,1.4-2.4l0.1-3.2v-5.7c0-1-0.1-2.2-0.3-2.3l-2.8-1l-0.1-1.8
		C190.4,32.4,195.6,31.2,197.4,31.2z"/>
</g>
</svg>
